{
  "accessors": [
    {
      "bufferView": 2,
      "componentType": 5126,
      "count": 6138,
      "max": [
        1.0930627584457397,
        0.9382649660110474,
        0.8676039576530457
      ],
      "min": [
        -1.0061668157577515,
        -0.47123590111732483,
        -0.7007039785385132
      ],
      "type": "VEC3"
    },
    {
      "bufferView": 2,
      "byteOffset": 73656,
      "componentType": 5126,
      "count": 6138,
      "max": [
        0.999668538570404,
        0.9996384978294373,
        0.9996671676635742
      ],
      "min": [
        -0.9996393918991089,
        -0.9999868273735046,
        -0.9996194243431091
      ],
      "type": "VEC3"
    },
    {
      "bufferView": 3,
      "componentType": 5126,
      "count": 6138,
      "max": [
        0.9997380971908569,
        0.9999141097068787,
        0.9997698664665222,
        1.0
      ],
      "min": [
        -0.998551607131958,
        -0.9999836087226868,
        -0.9998438358306885,
        -1.0
      ],
      "type": "VEC4"
    },
    {
      "bufferView": 1,
      "componentType": 5126,
      "count": 6138,
      "max": [
        1.0000001192092896,
        0.9984586238861084
      ],
      "min": [
        0.0,
        0.0
      ],
      "type": "VEC2"
    },
    {
      "bufferView": 1,
      "byteOffset": 49104,
      "componentType": 5126,
      "count": 6138,
      "max": [
        1.0000001192092896,
        0.9984586238861084
      ],
      "min": [
        0.0,
        0.0
      ],
      "type": "VEC2"
    },
    {
      "bufferView": 0,
      "componentType": 5125,
      "count": 28572,
      "type": "SCALAR"
    }
  ],
  "asset": {
    "extras": {
      "author": "WheelchairDrift (https://sketchfab.com/WheelchairDrift)",
      "license": "CC-BY-4.0 (http://creativecommons.org/licenses/by/4.0/)",
      "source": "https://sketchfab.com/3d-models/nike-air-uptempo-sneaker3d-scanned-low-poly-b147852f4b3f481aac7a4686b08cf43c",
      "title": "Nike Air Uptempo Sneaker(3D scanned, low poly)"
    },
    "generator": "Sketchfab-15.42.0",
    "version": "2.0"
  },
  "bufferViews": [
    {
      "buffer": 0,
      "byteLength": 114288,
      "name": "floatBufferViews",
      "target": 34963
    },
    {
      "buffer": 0,
      "byteLength": 98208,
      "byteOffset": 114288,
      "byteStride": 8,
      "name": "floatBufferViews",
      "target": 34962
    },
    {
      "buffer": 0,
      "byteLength": 147312,
      "byteOffset": 212496,
      "byteStride": 12,
      "name": "floatBufferViews",
      "target": 34962
    },
    {
      "buffer": 0,
      "byteLength": 98208,
      "byteOffset": 359808,
      "byteStride": 16,
      "name": "floatBufferViews",
      "target": 34962
    }
  ],
  "buffers": [
    {
      "byteLength": 458016,
      "uri": "scene.bin"
    }
  ],
  "images": [
    {
      "uri": "textures/Material_baseColor.png"
    },
    {
      "uri": "textures/Material_normal.png"
    }
  ],
  "materials": [
    {
      "doubleSided": true,
      "name": "Material",
      "normalTexture": {
        "index": 1,
        "texCoord": 1
      },
      "pbrMetallicRoughness": {
        "baseColorTexture": {
          "index": 0
        },
        "metallicFactor": 0.0,
        "roughnessFactor": 0.8211145618000169
      }
    }
  ],
  "meshes": [
    {
      "name": "Nike_Uptempo_Lowpoly_Material_0",
      "primitives": [
        {
          "attributes": {
            "NORMAL": 1,
            "POSITION": 0,
            "TANGENT": 2,
            "TEXCOORD_0": 3,
            "TEXCOORD_1": 4
          },
          "indices": 5,
          "material": 0,
          "mode": 4
        }
      ]
    }
  ],
  "nodes": [
    {
      "children": [
        1
      ],
      "matrix": [
        1.0,
        0.0,
        0.0,
        0.0,
        0.0,
        2.220446049250313e-16,
        -1.0,
        0.0,
        0.0,
        1.0,
        2.220446049250313e-16,
        0.0,
        0.0,
        0.0,
        0.0,
        1.0
      ],
      "name": "Sketchfab_model"
    },
    {
      "children": [
        2
      ],
      "matrix": [
        0.009999999776482582,
        0.0,
        0.0,
        0.0,
        0.0,
        0.0,
        0.009999999776482582,
        0.0,
        0.0,
        -0.009999999776482582,
        0.0,
        0.0,
        0.0,
        0.0,
        0.0,
        1.0
      ],
      "name": "9e2638f04b1f415ab9607df3fabeff25.fbx"
    },
    {
      "children": [
        3
      ],
      "name": "RootNode"
    },
    {
      "children": [
        4
      ],
      "matrix": [
        88.61762807601144,
        2.86044757990119,
        -52.1353458442661,
        0.0,
        -0.2478794719319804,
        102.72343781588918,
        5.21466797324688,
        0.0,
        52.213172733070955,
        -4.367156147768774,
        88.51030766110087,
        0.0,
        0.0,
        47.94916534423828,
        -4.739932060241699,
        1.0
      ],
      "name": "Nike_Uptempo_Lowpoly"
    },
    {
      "mesh": 0,
      "name": "Nike_Uptempo_Lowpoly_Material_0"
    }
  ],
  "samplers": [
    {
      "magFilter": 9729,
      "minFilter": 9987,
      "wrapS": 10497,
      "wrapT": 10497
    }
  ],
  "scene": 0,
  "scenes": [
    {
      "name": "Sketchfab_Scene",
      "nodes": [
        0
      ]
    }
  ],
  "textures": [
    {
      "sampler": 0,
      "source": 0
    },
    {
      "sampler": 0,
      "source": 1
    }
  ]
}
