<svg id="visual" viewBox="0 0 960 540" width="960" height="540" xmlns="http://www.w3.org/2000/svg" xmlns:xlink="http://www.w3.org/1999/xlink" version="1.1"><path d="M0 77L32 71.5C64 66 128 55 192 52.2C256 49.3 320 54.7 384 61.8C448 69 512 78 576 75.3C640 72.7 704 58.3 768 56.7C832 55 896 66 928 71.5L960 77L960 0L928 0C896 0 832 0 768 0C704 0 640 0 576 0C512 0 448 0 384 0C320 0 256 0 192 0C128 0 64 0 32 0L0 0Z" fill="#110f1b"></path><path d="M0 185L32 185.8C64 186.7 128 188.3 192 193.7C256 199 320 208 384 219.7C448 231.3 512 245.7 576 247.5C640 249.3 704 238.7 768 237.8C832 237 896 246 928 250.5L960 255L960 75L928 69.5C896 64 832 53 768 54.7C704 56.3 640 70.7 576 73.3C512 76 448 67 384 59.8C320 52.7 256 47.3 192 50.2C128 53 64 64 32 69.5L0 75Z" fill="#192264"></path><path d="M0 298L32 309.7C64 321.3 128 344.7 192 347.3C256 350 320 332 384 324.8C448 317.7 512 321.3 576 326.8C640 332.3 704 339.7 768 337.8C832 336 896 325 928 319.5L960 314L960 253L928 248.5C896 244 832 235 768 235.8C704 236.7 640 247.3 576 245.5C512 243.7 448 229.3 384 217.7C320 206 256 197 192 191.7C128 186.3 64 184.7 32 183.8L0 183Z" fill="#1130b6"></path><path d="M0 347L32 357.7C64 368.3 128 389.7 192 390.5C256 391.3 320 371.7 384 364.5C448 357.3 512 362.7 576 366.3C640 370 704 372 768 372C832 372 896 370 928 369L960 368L960 312L928 317.5C896 323 832 334 768 335.8C704 337.7 640 330.3 576 324.8C512 319.3 448 315.7 384 322.8C320 330 256 348 192 345.3C128 342.7 64 319.3 32 307.7L0 296Z" fill="#1135d8"></path><path d="M0 406L32 411.3C64 416.7 128 427.3 192 424.7C256 422 320 406 384 402.5C448 399 512 408 576 417C640 426 704 435 768 436.8C832 438.7 896 433.3 928 430.7L960 428L960 366L928 367C896 368 832 370 768 370C704 370 640 368 576 364.3C512 360.7 448 355.3 384 362.5C320 369.7 256 389.3 192 388.5C128 387.7 64 366.3 32 355.7L0 345Z" fill="#1130b6"></path><path d="M0 492L32 493C64 494 128 496 192 495.2C256 494.3 320 490.7 384 489.7C448 488.7 512 490.3 576 490.3C640 490.3 704 488.7 768 490.5C832 492.3 896 497.7 928 500.3L960 503L960 426L928 428.7C896 431.3 832 436.7 768 434.8C704 433 640 424 576 415C512 406 448 397 384 400.5C320 404 256 420 192 422.7C128 425.3 64 414.7 32 409.3L0 404Z" fill="#192264"></path><path d="M0 541L32 541C64 541 128 541 192 541C256 541 320 541 384 541C448 541 512 541 576 541C640 541 704 541 768 541C832 541 896 541 928 541L960 541L960 501L928 498.3C896 495.7 832 490.3 768 488.5C704 486.7 640 488.3 576 488.3C512 488.3 448 486.7 384 487.7C320 488.7 256 492.3 192 493.2C128 494 64 492 32 491L0 490Z" fill="#110f1b"></path></svg>